<?xml version="1.0" standalone="no"?>
<!DOCTYPE svg PUBLIC "-//W3C//DTD SVG 20010904//EN"
 "http://www.w3.org/TR/2001/REC-SVG-20010904/DTD/svg10.dtd">
<svg version="1.0" xmlns="http://www.w3.org/2000/svg"
 width="700.000000pt" height="700.000000pt" viewBox="0 0 700.000000 700.000000"
 preserveAspectRatio="xMidYMid meet">
<metadata>
Created by potrace 1.14, written by Peter Selinger 2001-2017
</metadata>
<g transform="translate(0.000000,700.000000) scale(0.100000,-0.100000)"
fill="#000000" stroke="none">
<path d="M335 6986 c-82 -21 -147 -57 -206 -116 -62 -62 -102 -137 -119 -225
-8 -44 -10 -876 -8 -3185 l3 -3125 24 -58 c43 -109 139 -205 248 -249 l58 -23
3140 -3 c3442 -2 3194 -6 3308 55 71 39 149 128 183 209 l29 69 2 3140 c3
3389 6 3180 -48 3292 -30 62 -121 153 -183 183 -110 52 67 50 -3271 49 -2452
-1 -3121 -3 -3160 -13z"/>
</g>
</svg>
