<svg width="90" height="90" viewBox="0 0 90 90" fill="none" xmlns="http://www.w3.org/2000/svg">
<rect width="90" height="90" fill="#E9ECEF"/>
<path d="M44.5 45C49.9688 45 54.5 40.5469 54.5 35C54.5 29.5312 49.9688 25 44.5 25C38.9531 25 34.5 29.5312 34.5 35C34.5 40.5469 38.9531 45 44.5 45ZM51.4531 47.5H50.125C48.4062 48.3594 46.5312 48.75 44.5 48.75C42.4688 48.75 40.5156 48.3594 38.7969 47.5H37.4688C31.6875 47.5 27 52.2656 27 58.0469V61.25C27 63.3594 28.6406 65 30.75 65H58.25C60.2812 65 62 63.3594 62 61.25V58.0469C62 52.2656 57.2344 47.5 51.4531 47.5Z" fill="#343A40"/>
</svg>
