<svg width="77" height="44" viewBox="0 0 77 44" fill="none" xmlns="http://www.w3.org/2000/svg">
<path d="M34.7399 7.84C34.7399 5.6 35.5132 3.73333 37.0599 2.24C38.6066 0.746667 40.5266 0 42.8199 0C45.0066 0 46.8732 0.746667 48.4199 2.24C49.9666 3.73333 50.7399 5.6 50.7399 7.84C50.7399 10.08 49.9666 11.9733 48.4199 13.52C46.8732 15.12 45.0066 15.92 42.8199 15.92C40.5266 15.92 38.6066 15.12 37.0599 13.52C35.5132 11.9733 34.7399 10.08 34.7399 7.84ZM8.81992 7.84C8.81992 5.6 9.56658 3.73333 11.0599 2.24C12.6066 0.746667 14.5266 0 16.8199 0C19.0599 0 20.9532 0.746667 22.4999 2.24C24.0466 3.73333 24.8199 5.6 24.8199 7.84C24.8199 10.08 24.0466 11.9733 22.4999 13.52C20.9532 15.12 19.0599 15.92 16.8199 15.92C14.5266 15.92 12.6066 15.12 11.0599 13.52C9.56658 11.9733 8.81992 10.08 8.81992 7.84Z" fill="#196BDE"/>
<path d="M0.339912 35.46C3.21991 32.6333 6.65991 30.1533 10.6599 28.02C14.6599 25.94 19.0332 24.3133 23.7799 23.14C28.5266 21.9667 33.4332 21.38 38.4999 21.38C43.6199 21.38 48.5266 21.9667 53.2199 23.14C57.9666 24.3133 62.3399 25.94 66.3399 28.02C70.3399 30.1533 73.7799 32.6333 76.6599 35.46V43.86C73.5132 41.4067 69.8866 39.3 65.7799 37.54C61.6732 35.78 57.2999 34.42 52.6599 33.46C48.0199 32.5533 43.2999 32.1 38.4999 32.1C33.6466 32.1 28.8999 32.5533 24.2599 33.46C19.6199 34.42 15.2466 35.78 11.1399 37.54C7.08658 39.3 3.48658 41.4067 0.339912 43.86V35.46Z" fill="#196BDE"/>
</svg>
